<?xml version="1.0" standalone="no"?>
<!DOCTYPE svg PUBLIC "-//W3C//DTD SVG 20010904//EN"
 "http://www.w3.org/TR/2001/REC-SVG-20010904/DTD/svg10.dtd">
<svg version="1.0" xmlns="http://www.w3.org/2000/svg"
 width="32.000000pt" height="32.000000pt" viewBox="0 0 32.000000 32.000000"
 preserveAspectRatio="xMidYMid meet">

<g transform="translate(0.000000,32.000000) scale(0.100000,-0.100000)"
fill="#000000" stroke="none">
<path d="M21 266 c-7 -8 -11 -35 -9 -63 2 -39 7 -50 26 -58 14 -6 22 -18 22
-34 l0 -24 23 21 c30 28 45 28 49 0 2 -18 10 -24 39 -26 21 -2 45 -12 54 -23
22 -24 35 -24 35 -1 0 9 10 22 23 27 16 7 23 20 25 47 5 56 -11 78 -58 78 -36
0 -39 2 -42 33 l-3 32 -86 3 c-66 2 -89 -1 -98 -12z m174 -56 l0 -55 -42 -3
c-23 -2 -47 -10 -53 -18 -16 -18 -30 -18 -30 1 0 8 -9 15 -20 15 -18 0 -20 7
-20 60 l0 61 83 -3 82 -3 0 -55z m93 -67 c3 -47 1 -53 -17 -53 -10 0 -21 -6
-24 -12 -3 -10 -7 -10 -18 -1 -8 6 -30 13 -49 15 -27 2 -36 8 -38 26 -3 19 1
22 28 22 18 0 32 6 35 15 3 8 7 22 10 31 3 11 15 14 37 12 32 -3 33 -4 36 -55z"/>
<path d="M78 233 c17 -2 47 -2 65 0 17 2 3 4 -33 4 -36 0 -50 -2 -32 -4z"/>
<path d="M60 210 c0 -5 25 -10 55 -10 30 0 55 5 55 10 0 6 -25 10 -55 10 -30
0 -55 -4 -55 -10z"/>
<path d="M78 183 c17 -2 47 -2 65 0 17 2 3 4 -33 4 -36 0 -50 -2 -32 -4z"/>
<path d="M230 170 c0 -5 7 -10 15 -10 8 0 15 5 15 10 0 6 -7 10 -15 10 -8 0
-15 -4 -15 -10z"/>
<path d="M233 143 c9 -2 23 -2 30 0 6 3 -1 5 -18 5 -16 0 -22 -2 -12 -5z"/>
<path d="M193 113 c15 -2 39 -2 55 0 15 2 2 4 -28 4 -30 0 -43 -2 -27 -4z"/>
</g>
</svg>
