<?xml version="1.0" standalone="no"?>
<!DOCTYPE svg PUBLIC "-//W3C//DTD SVG 20010904//EN"
 "http://www.w3.org/TR/2001/REC-SVG-20010904/DTD/svg10.dtd">
<svg version="1.0" xmlns="http://www.w3.org/2000/svg"
 width="48.000000pt" height="48.000000pt" viewBox="0 0 48.000000 48.000000"
 preserveAspectRatio="xMidYMid meet">

<g transform="translate(0.000000,48.000000) scale(0.100000,-0.100000)"
fill="#000000" stroke="none">
<path d="M335 410 c-30 -31 -36 -43 -27 -52 9 -9 15 -9 24 0 23 23 28 11 28
-78 l0 -89 -97 -3 c-79 -2 -98 -6 -98 -18 0 -12 19 -15 115 -15 l115 0 3 108
c1 59 6 107 10 107 5 0 13 -5 20 -12 9 -9 15 -9 24 0 9 9 3 21 -27 52 -21 22
-42 40 -45 40 -3 0 -24 -18 -45 -40z"/>
<path d="M87 284 c-4 -4 -7 -45 -7 -91 0 -82 -5 -94 -28 -71 -9 9 -15 9 -24 0
-10 -10 -3 -21 30 -55 l42 -42 42 42 c33 34 40 45 30 55 -9 9 -15 9 -24 0 -23
-23 -28 -12 -28 58 l0 69 98 3 c78 2 97 6 97 18 0 12 -20 16 -111 18 -60 1
-113 -1 -117 -4z"/>
</g>
</svg>
