<?xml version="1.0" standalone="no"?>
<!DOCTYPE svg PUBLIC "-//W3C//DTD SVG 20010904//EN"
 "http://www.w3.org/TR/2001/REC-SVG-20010904/DTD/svg10.dtd">
<svg version="1.0" xmlns="http://www.w3.org/2000/svg"
 width="32.000000pt" height="32.000000pt" viewBox="0 0 32.000000 32.000000"
 preserveAspectRatio="xMidYMid meet">

<g transform="translate(0.000000,32.000000) scale(0.100000,-0.100000)"
fill="#000000" stroke="none">
<path d="M122 290 c-33 -14 -47 -57 -27 -86 8 -13 20 -24 26 -24 22 0 -2 -18
-32 -24 -18 -3 -38 -11 -46 -17 -15 -13 -18 -75 -3 -84 6 -4 10 10 10 34 0 39
2 41 42 51 23 7 54 10 70 8 16 -3 31 -1 34 4 3 4 -2 8 -10 8 -22 0 -20 13 4
35 27 24 25 51 -5 80 -26 27 -29 28 -63 15z m52 -26 c19 -18 21 -45 4 -62 -39
-39 -100 17 -63 58 22 24 38 25 59 4z"/>
<path d="M220 141 c0 -6 -17 -11 -37 -13 l-38 -3 -3 -52 -3 -53 80 0 81 0 0
55 c0 52 -1 55 -25 55 -14 0 -25 -4 -25 -10 0 -5 9 -10 20 -10 16 0 20 -7 20
-35 l0 -35 -65 0 -65 0 0 36 c0 35 1 36 35 32 31 -4 35 -1 35 19 0 13 -2 23
-5 23 -3 0 -5 -4 -5 -9z"/>
<path d="M200 70 c0 -5 11 -10 25 -10 14 0 25 5 25 10 0 6 -11 10 -25 10 -14
0 -25 -4 -25 -10z"/>
</g>
</svg>
