<?xml version="1.0" standalone="no"?>
<!DOCTYPE svg PUBLIC "-//W3C//DTD SVG 20010904//EN"
 "http://www.w3.org/TR/2001/REC-SVG-20010904/DTD/svg10.dtd">
<svg version="1.0" xmlns="http://www.w3.org/2000/svg"
 width="325.000000pt" height="325.000000pt" viewBox="0 0 325.000000 325.000000"
 preserveAspectRatio="xMidYMid meet">

<g transform="translate(0.000000,325.000000) scale(0.100000,-0.100000)"
fill="#000000" stroke="none">
<path d="M680 2458 c-50 -14 -131 -71 -170 -119 -69 -87 -70 -95 -70 -724 0
-535 1 -566 20 -628 16 -52 31 -76 73 -118 29 -30 75 -65 102 -79 l50 -25 960
0 960 0 50 25 c27 14 73 49 102 79 42 42 57 66 73 118 19 62 20 93 20 628 0
535 -1 566 -20 628 -16 52 -31 76 -73 118 -29 30 -75 65 -102 79 l-50 25 -945
2 c-606 1 -957 -2 -980 -9z m301 -416 c15 -9 42 -32 60 -50 97 -96 455 -410
487 -427 28 -15 56 -20 117 -20 61 0 89 5 117 20 33 18 379 320 482 421 57 56
87 74 124 74 39 0 87 -23 96 -45 8 -21 8 -69 0 -89 -5 -12 -193 -187 -308
-288 -6 -4 58 -77 152 -172 161 -163 162 -164 162 -209 0 -38 -5 -49 -31 -71
-34 -29 -76 -33 -117 -12 -15 8 -94 82 -176 165 l-149 150 -41 -35 c-23 -20
-75 -52 -115 -72 -74 -36 -77 -37 -196 -37 -119 0 -122 1 -196 37 -40 20 -92
52 -115 72 l-41 35 -149 -150 c-82 -83 -161 -157 -176 -165 -70 -37 -148 7
-148 83 0 36 9 47 160 198 88 88 160 164 160 170 0 5 -61 64 -136 130 -75 66
-147 133 -160 148 -27 32 -33 92 -11 119 32 40 103 50 148 20z"/>
</g>
</svg>
