<?xml version="1.0" standalone="no"?>
<!DOCTYPE svg PUBLIC "-//W3C//DTD SVG 20010904//EN"
 "http://www.w3.org/TR/2001/REC-SVG-20010904/DTD/svg10.dtd">
<svg version="1.0" xmlns="http://www.w3.org/2000/svg"
 width="256.000000pt" height="256.000000pt" viewBox="0 0 256.000000 256.000000"
 preserveAspectRatio="xMidYMid meet">

<g transform="translate(0.000000,256.000000) scale(0.100000,-0.100000)"
fill="#000000" stroke="none">
<path d="M1135 1388 c-3 -13 -4 -126 -3 -253 l3 -230 408 -3 407 -2 -2 252 -3
253 -402 3 -403 2 -5 -22z m725 -25 c0 -8 -116 -106 -246 -206 l-71 -56 -155
123 c-86 68 -158 129 -162 135 -5 8 80 11 313 11 177 0 321 -3 321 -7z m-517
-151 c31 -25 57 -49 57 -53 0 -13 -213 -188 -222 -183 -9 6 -11 348 -2 357 3
3 29 -13 58 -35 28 -23 77 -61 109 -86z m565 -148 l-3 -97 -107 89 c-59 49
-107 94 -107 101 -1 6 18 26 42 44 23 18 71 58 107 88 l65 54 3 -91 c1 -50 1
-135 0 -188z m-419 31 c24 -19 49 -35 55 -35 6 0 31 16 55 35 24 19 46 35 48
35 12 0 213 -177 213 -187 0 -10 -67 -13 -314 -13 -178 0 -317 4 -320 9 -5 8
199 190 214 190 3 1 25 -15 49 -34z"/>
<path d="M2007 1404 c-4 -4 -7 -13 -7 -21 0 -10 24 -13 106 -13 95 0 105 2
102 18 -3 14 -17 17 -99 20 -52 1 -98 0 -102 -4z"/>
<path d="M2002 1293 c2 -13 12 -18 38 -18 51 0 48 29 -3 33 -33 3 -38 1 -35
-15z"/>
<path d="M2222 1293 c3 -16 17 -18 123 -18 106 0 120 2 123 18 3 15 -8 17
-123 17 -115 0 -126 -2 -123 -17z"/>
<path d="M2007 1214 c-4 -4 -7 -13 -7 -21 0 -11 21 -13 103 -11 83 2 102 6
102 18 0 12 -19 16 -95 18 -53 1 -99 0 -103 -4z"/>
<path d="M2291 1211 c-26 -16 0 -31 54 -31 54 0 80 15 54 31 -8 5 -32 9 -54 9
-22 0 -46 -4 -54 -9z"/>
<path d="M2002 1103 c3 -16 18 -18 117 -21 109 -3 150 6 135 29 -3 5 -61 9
-130 9 -114 0 -125 -2 -122 -17z"/>
<path d="M2007 1024 c-4 -4 -7 -14 -7 -21 0 -10 11 -13 43 -11 29 2 42 8 42
18 0 16 -64 27 -78 14z"/>
<path d="M2127 1024 c-4 -4 -7 -13 -7 -21 0 -10 25 -13 111 -13 100 0 110 2
107 18 -3 15 -17 17 -104 20 -55 1 -103 0 -107 -4z"/>
<path d="M2000 915 c0 -13 12 -15 78 -13 43 2 77 7 77 13 0 6 -34 11 -77 13
-66 2 -78 0 -78 -13z"/>
</g>
</svg>
