<?xml version="1.0" standalone="no"?>
<!DOCTYPE svg PUBLIC "-//W3C//DTD SVG 20010904//EN"
 "http://www.w3.org/TR/2001/REC-SVG-20010904/DTD/svg10.dtd">
<svg version="1.0" xmlns="http://www.w3.org/2000/svg"
 width="32.000000pt" height="32.000000pt" viewBox="0 0 32.000000 32.000000"
 preserveAspectRatio="xMidYMid meet">

<g transform="translate(0.000000,32.000000) scale(0.100000,-0.100000)"
fill="#000000" stroke="none">
<path d="M127 294 c-4 -4 -7 -16 -7 -26 0 -18 -8 -22 -47 -18 -16 1 -26 -7
-34 -24 -10 -22 -9 -29 6 -46 17 -19 17 -21 0 -40 -15 -17 -16 -24 -7 -46 10
-21 18 -25 44 -22 27 3 33 -1 38 -22 5 -21 12 -25 40 -25 28 0 35 4 40 25 5
21 11 25 38 22 26 -3 34 1 44 22 9 22 8 29 -7 46 -17 19 -17 21 0 40 15 17 16
24 6 46 -9 21 -17 25 -43 22 -27 -3 -33 1 -38 22 -4 19 -13 26 -36 28 -16 2
-33 0 -37 -4z m53 -34 c0 -24 29 -41 57 -34 28 8 39 -13 19 -35 -20 -22 -20
-40 0 -62 20 -22 9 -43 -19 -35 -28 7 -57 -10 -57 -34 0 -13 -7 -20 -20 -20
-13 0 -20 7 -20 20 0 24 -29 41 -57 34 -28 -8 -39 13 -19 35 20 22 20 40 0 62
-21 23 -9 42 21 35 25 -6 55 15 55 40 0 8 9 14 20 14 13 0 20 -7 20 -20z"/>
<path d="M126 194 c-31 -30 -9 -84 34 -84 24 0 50 26 50 50 0 24 -26 50 -50
50 -10 0 -26 -7 -34 -16z m59 -34 c0 -18 -6 -26 -23 -28 -13 -2 -25 3 -28 12
-10 26 4 48 28 44 17 -2 23 -10 23 -28z"/>
</g>
</svg>
