<?xml version="1.0" standalone="no"?>
<!DOCTYPE svg PUBLIC "-//W3C//DTD SVG 20010904//EN"
 "http://www.w3.org/TR/2001/REC-SVG-20010904/DTD/svg10.dtd">
<svg version="1.0" xmlns="http://www.w3.org/2000/svg"
 width="32.000000pt" height="32.000000pt" viewBox="0 0 32.000000 32.000000"
 preserveAspectRatio="xMidYMid meet">

<g transform="translate(0.000000,32.000000) scale(0.100000,-0.100000)"
fill="#000000" stroke="none">
<path d="M30 160 l0 -130 130 0 c165 0 175 18 13 22 l-118 3 -3 118 c-4 162
-22 152 -22 -13z"/>
<path d="M190 185 c0 -63 4 -105 10 -105 6 0 10 42 10 105 0 63 -4 105 -10
105 -6 0 -10 -42 -10 -105z"/>
<path d="M240 160 c0 -61 3 -81 13 -78 17 6 17 150 0 156 -10 3 -13 -17 -13
-78z"/>
<path d="M134 177 c-9 -25 0 -90 14 -95 8 -2 12 11 12 47 0 49 -15 76 -26 48z"/>
<path d="M80 105 c0 -17 5 -25 13 -22 6 2 12 12 12 22 0 10 -6 20 -12 23 -8 2
-13 -6 -13 -23z"/>
</g>
</svg>
