<?xml version="1.0" standalone="no"?>
<!DOCTYPE svg PUBLIC "-//W3C//DTD SVG 20010904//EN"
 "http://www.w3.org/TR/2001/REC-SVG-20010904/DTD/svg10.dtd">
<svg version="1.0" xmlns="http://www.w3.org/2000/svg"
 width="32.000000pt" height="32.000000pt" viewBox="0 0 32.000000 32.000000"
 preserveAspectRatio="xMidYMid meet">

<g transform="translate(0.000000,32.000000) scale(0.100000,-0.100000)"
fill="#000000" stroke="none">
<path d="M12 268 c-16 -16 -16 -200 0 -216 17 -17 279 -17 296 0 16 16 16 200
0 216 -17 17 -279 17 -296 0z m233 -43 c-75 -66 -82 -69 -107 -51 -13 8 -41
31 -63 51 l-40 35 125 0 125 0 -40 -35z m-166 -28 l23 -26 -38 -45 c-21 -25
-40 -46 -41 -46 -2 0 -3 36 -3 80 0 89 6 93 59 37z m219 -78 l-3 -40 -39 47
-39 47 39 36 39 36 3 -42 c2 -24 2 -61 0 -84z m-119 25 c18 16 20 15 61 -31
l42 -48 -61 -3 c-34 -2 -88 -2 -122 0 l-61 3 42 48 c41 46 43 47 61 31 18 -16
20 -16 38 0z"/>
</g>
</svg>
